<?xml version="1.0" encoding="UTF-8"?>
<svg version="1.1" xmlns="http://www.w3.org/2000/svg" width="243" height="299">
<path d="M0 0 C15.21177945 11.28273345 15.21177945 11.28273345 17.39453125 17.7109375 C17.46671875 18.27167969 17.53890625 18.83242187 17.61328125 19.41015625 C16.91203125 19.96703125 16.21078125 20.52390625 15.48828125 21.09765625 C1.10408925 32.66754981 -10.4178882 44.99321191 -12.84765625 64.01953125 C-14.81319144 84.1097361 -10.55484146 102.60092345 2.34765625 118.5546875 C8.43540161 125.14974498 16.60171428 130.40437277 24.61328125 134.41015625 C25.33807045 140.67065428 22.78498366 145.57715091 20.30078125 151.16015625 C19.8521875 152.1764209 19.40359375 153.19268555 18.94140625 154.23974609 C9.14366315 175.88773735 -6.79026094 203.21283871 -28.94921875 213.84765625 C-43.36343297 218.82790987 -56.39019486 213.9980641 -70.1875 209.35546875 C-86.94354129 203.82896984 -100.61677064 205.22405491 -117.01171875 211.01171875 C-129.08639125 215.24277976 -142.66703079 219.03385438 -154.94921875 213.34765625 C-157.22265625 211.95703125 -157.22265625 211.95703125 -159.38671875 210.41015625 C-160.16273438 209.8790625 -160.93875 209.34796875 -161.73828125 208.80078125 C-167.05781609 204.92232441 -171.31577406 200.55870394 -175.38671875 195.41015625 C-175.80791992 194.88341309 -176.22912109 194.35666992 -176.66308594 193.81396484 C-188.86689893 178.44667214 -199.45134787 161.82577936 -206.38671875 143.41015625 C-206.67885254 142.641875 -206.97098633 141.87359375 -207.27197266 141.08203125 C-219.8572624 107.36016689 -225.59495705 66.81695056 -210.22509766 33.03125 C-201.08456268 14.07310339 -186.8634195 -0.40725551 -166.82421875 -7.52734375 C-148.8483489 -13.54650562 -131.63672918 -10.91273439 -114.1171875 -4.73046875 C-112.72705444 -4.24815796 -112.72705444 -4.24815796 -111.30883789 -3.75610352 C-109.49226714 -3.12045438 -107.68222915 -2.46569827 -105.88061523 -1.78881836 C-94.23231926 2.35207889 -84.39537462 -1.9279988 -73.13671875 -5.58984375 C-70.96688576 -6.28866897 -68.79630486 -6.98504548 -66.62481689 -7.67871094 C-65.28252267 -8.10820703 -63.94126694 -8.54096728 -62.60125732 -8.97753906 C-41.82959691 -15.66893367 -18.06984346 -12.03670423 0 0 Z " fill="#FCFCFC" transform="translate(218.38671875,83.58984375)"/>
<path d="M0 0 C0.87398437 0.01804688 1.74796875 0.03609375 2.6484375 0.0546875 C3.62683594 0.08949219 3.62683594 0.08949219 4.625 0.125 C5.5332481 19.55141769 0.44942631 35.73837359 -12.27734375 50.84375 C-21.7526689 61.14838666 -33.16987498 68.67549745 -47.375 70.125 C-50.71031991 70.19542908 -54.03961727 70.18432499 -57.375 70.125 C-56.5781636 48.47303163 -51.12326582 31.5367698 -35.140625 15.9453125 C-26.26488219 8.29072893 -12.04504285 -0.3255417 0 0 Z " fill="#F6F6F6" transform="translate(176.375,-0.125)"/>
<path d="M0 0 C0.33 0 0.66 0 1 0 C1.11065041 6.74967503 0.68026044 13.2824282 0 20 C4.62 20 9.24 20 14 20 C14 20.33 14 20.66 14 21 C8.63904667 22.12862175 3.44693314 22.09688221 -2 22 C-1.85811015 19.45805839 -1.71160845 16.91652007 -1.5625 14.375 C-1.52318359 13.66214844 -1.48386719 12.94929688 -1.44335938 12.21484375 C-1.19690319 8.08196318 -0.76529947 4.07730976 0 0 Z " fill="#9B999A" transform="translate(121,48)"/>
<path d="M0 0 C0.66 0.33 1.32 0.66 2 1 C-2.71890538 6.40052505 -7.30358857 11.61814505 -13 16 C-13 10.79628205 -8.49504984 7.5790344 -5 4 C-3.37707762 2.6137538 -1.7331451 1.24569804 0 0 Z " fill="#B5B4B4" transform="translate(146,12)"/>
<path d="M0 0 C0.66 0.33 1.32 0.66 2 1 C0.21479439 3.00611734 -1.57758712 5.0048717 -3.375 7 C-3.88289063 7.57234375 -4.39078125 8.1446875 -4.9140625 8.734375 C-6.23504905 10.19441277 -7.61400799 11.60152157 -9 13 C-9.66 13 -10.32 13 -11 13 C-11 13.66 -11 14.32 -11 15 C-11.66 15 -12.32 15 -13 15 C-11.38989473 10.92623969 -8.46177729 8.23492931 -5.375 5.25 C-4.859375 4.74339844 -4.34375 4.23679687 -3.8125 3.71484375 C-2.54616661 2.47196098 -1.2736856 1.23534724 0 0 Z " fill="#B6B5B5" transform="translate(31,87)"/>
</svg>
