<?xml version="1.0" encoding="UTF-8"?>
<svg version="1.1" xmlns="http://www.w3.org/2000/svg" width="494" height="505">
<path d="M0 0 C0.9075 0.886875 1.815 1.77375 2.75 2.6875 C2.75 3.3475 2.75 4.0075 2.75 4.6875 C3.33910156 4.9246875 3.92820312 5.161875 4.53515625 5.40625 C7.24218231 6.97221922 8.42363155 8.61298531 10.1875 11.1875 C10.74308594 11.9815625 11.29867188 12.775625 11.87109375 13.59375 C16.55238318 21.30181908 19.74394287 28.86349455 21.875 37.625 C22.12725342 38.64118408 22.37950684 39.65736816 22.6394043 40.7043457 C25.29307275 52.01139275 26.45817451 63.46802359 27.45629883 75.0222168 C27.74291589 77.623213 28.22829692 80.12517429 28.75 82.6875 C28.87766002 84.89459984 28.97827186 87.10331634 29.0625 89.3125 C29.4683682 97.0575849 30.46249873 104.70084248 31.5625 112.375 C31.71565674 113.4902002 31.86881348 114.60540039 32.02661133 115.75439453 C33.70848081 127.08181464 36.64214463 137.60550413 42.25 147.625 C42.62769531 148.32689453 43.00539063 149.02878906 43.39453125 149.75195312 C45.64367897 153.88311963 48.09228299 157.80232333 50.75 161.6875 C51.96576763 163.53680055 53.17435233 165.39084733 54.375 167.25 C55.26058594 168.61318359 55.26058594 168.61318359 56.1640625 170.00390625 C57.64840558 172.51559024 58.75079927 174.95206435 59.75 177.6875 C60.41 177.6875 61.07 177.6875 61.75 177.6875 C63.17808918 179.57117591 64.51921391 181.5213427 65.8125 183.5 C66.52535156 184.57894531 67.23820312 185.65789062 67.97265625 186.76953125 C69.75 189.6875 69.75 189.6875 70.75 192.6875 C71.41 192.6875 72.07 192.6875 72.75 192.6875 C72.75 193.3475 72.75 194.0075 72.75 194.6875 C73.41 194.6875 74.07 194.6875 74.75 194.6875 C84.57191869 206.40002276 94.06929559 220.65321319 99.95288086 234.78344727 C100.81148663 236.83437113 101.71225186 238.86364729 102.6171875 240.89453125 C106.08861738 248.79919844 109.28822604 256.67966847 111.625 265 C111.81562012 265.66684814 112.00624023 266.33369629 112.20263672 267.02075195 C115.39491522 279.03151927 116.12302665 291.18581271 116.0625 303.5625 C116.06200653 304.26039642 116.06151306 304.95829285 116.06100464 305.67733765 C116.03642078 317.04077871 115.37202573 327.82142281 111.75 338.6875 C112.4925 338.6875 113.235 338.6875 114 338.6875 C116.75 339.6875 116.75 339.6875 118.8125 342.6875 C122.36567921 350.64604367 124.14188955 359.91018431 125.23828125 368.5234375 C126.04824153 373.53158884 128.78107793 376.15338155 132.625 379.1484375 C138.0537074 382.92059081 143.86313401 385.95585156 149.734375 388.9765625 C155.11311343 392.02823016 158.62741983 394.76661847 160.75 400.6875 C161.54204421 406.63325653 160.84616172 411.4627271 157.75 416.6875 C153.59808043 421.28801778 149.63839858 423.85650377 143.85766602 425.90576172 C140.47555737 427.16019377 137.28044411 428.75196701 134.0625 430.375 C133.37333496 430.72240234 132.68416992 431.06980469 131.97412109 431.42773438 C122.2905504 436.38222318 113.24278224 441.91117006 104.96875 449.0234375 C102.75 450.6875 102.75 450.6875 100.09375 451.6640625 C97.17507295 452.93855148 97.0772375 453.88105124 95.75 456.6875 C93.2890625 458.9765625 93.2890625 458.9765625 90.375 461.3125 C89.41851562 462.08851563 88.46203125 462.86453125 87.4765625 463.6640625 C85.26019423 465.30887448 83.26177212 466.5804156 80.75 467.6875 C80.75 468.3475 80.75 469.0075 80.75 469.6875 C80.09 469.6875 79.43 469.6875 78.75 469.6875 C78.75 470.3475 78.75 471.0075 78.75 471.6875 C73.33823529 475.6875 73.33823529 475.6875 70.75 475.6875 C70.75 476.3475 70.75 477.0075 70.75 477.6875 C57.15149636 485.49593612 45.35732607 487.4275044 29.75 483.6875 C25.94296053 482.25762602 22.33492284 480.60433629 18.75 478.6875 C18.75 478.0275 18.75 477.3675 18.75 476.6875 C17.9146875 476.3471875 17.9146875 476.3471875 17.0625 476 C13.15356797 473.78141696 10.38468048 470.95686095 8.375 466.9375 C6.90915727 464.36806592 6.90915727 464.36806592 3.78491211 464.10766602 C2.44129986 463.95512809 1.0960895 463.81635937 -0.25 463.6875 C-1.38609207 463.57074417 -1.38609207 463.57074417 -2.5451355 463.45162964 C-5.17342027 463.19091663 -7.80292818 462.95030345 -10.43359375 462.71484375 C-11.40676041 462.62747452 -12.37992706 462.54010529 -13.38258362 462.4500885 C-15.43911905 462.26662546 -17.49575723 462.08431097 -19.55249023 461.90307617 C-22.64693216 461.62859838 -25.74041376 461.34465282 -28.83398438 461.06054688 C-44.24889018 459.6776599 -59.15880222 458.92344517 -74.5625 461 C-75.54283203 461.11794922 -76.52316406 461.23589844 -77.53320312 461.35742188 C-89.9580598 462.95877485 -101.40971823 465.39387045 -110.25 474.6875 C-118.54824874 481.53060559 -127.58134468 483.25432251 -138.25 482.6875 C-141.5737614 482.24804551 -144.84257311 481.61638612 -148.125 480.9375 C-149.45543335 480.66679688 -149.45543335 480.66679688 -150.81274414 480.390625 C-156.07661146 479.27417924 -160.96338602 477.92087781 -165.87890625 475.6953125 C-169.92266285 473.9765494 -174.15362996 472.84571873 -178.3671875 471.6171875 C-181.25 470.6875 -181.25 470.6875 -183.30078125 469.65625 C-185.67804157 468.47476591 -187.97849283 467.92008122 -190.5625 467.3125 C-195.2085982 466.19316157 -199.82578928 465.00371667 -204.4375 463.75 C-219.98268281 459.57017421 -219.98268281 459.57017421 -235.8125 456.75 C-246.44729356 455.21163364 -257.78853432 452.87691355 -265.25 444.6875 C-267.4887767 440.20994661 -266.62836612 434.84361869 -265.125 430.25 C-263.24385819 426.38870893 -260.93396671 422.7515284 -258.65234375 419.1171875 C-255.61407151 413.8531058 -254.9245452 409.54506488 -255 403.5 C-255.00459229 402.74549561 -255.00918457 401.99099121 -255.01391602 401.21362305 C-255.10616148 395.51822937 -255.82347799 390.20846688 -257.25 384.6875 C-259.29489093 375.28100173 -259.01998859 367.0496971 -255.02734375 358.2578125 C-251.89144514 353.72282067 -249.05607501 350.21970751 -243.4206543 349.15087891 C-240.14297016 348.94492715 -236.90883269 348.90321404 -233.625 348.9375 C-231.40360415 348.92982236 -229.18221852 348.91448124 -226.9609375 348.890625 C-225.49599854 348.90077637 -225.49599854 348.90077637 -224.00146484 348.91113281 C-221.00201434 348.66734429 -218.91662614 348.07517839 -216.25 346.6875 C-214.68362068 344.28491045 -213.55281563 342.22606877 -212.4375 339.625 C-212.1276416 338.91545166 -211.8177832 338.20590332 -211.49853516 337.47485352 C-209.11201678 331.47696549 -208.90846943 326.362882 -209.23388672 319.99389648 C-209.67176003 308.72967032 -204.73348602 299.26802526 -199.25 289.6875 C-187.37975162 269.00380019 -187.37975162 269.00380019 -179.25 246.6875 C-178.93289062 245.49898438 -178.61578125 244.31046875 -178.2890625 243.0859375 C-178.11938965 242.44906006 -177.9497168 241.81218262 -177.77490234 241.15600586 C-177.42439473 239.84152079 -177.07315526 238.52723066 -176.72119141 237.21313477 C-175.99570031 234.50228703 -175.27566253 231.79249729 -174.609375 229.06640625 C-172.4205787 220.74617417 -168.21282498 213.27428607 -164.25 205.6875 C-163.59 205.6875 -162.93 205.6875 -162.25 205.6875 C-162.00121094 204.965625 -161.75242187 204.24375 -161.49609375 203.5 C-160.12467265 200.40462949 -158.49267674 198.27374944 -156.3125 195.6875 C-155.51972656 194.74003906 -154.72695312 193.79257813 -153.91015625 192.81640625 C-153.0243574 191.77265611 -152.13758919 190.72972808 -151.25 189.6875 C-149.74489576 187.91640965 -148.23999167 186.14515346 -146.73608398 184.37304688 C-145.75780883 183.22232401 -144.77691537 182.07382112 -143.79321289 180.92773438 C-141.2561927 177.99059039 -141.2561927 177.99059039 -139.25 174.6875 C-138.59 174.6875 -137.93 174.6875 -137.25 174.6875 C-136.981875 173.924375 -136.71375 173.16125 -136.4375 172.375 C-135.25 169.6875 -135.25 169.6875 -133.859375 168.33203125 C-124.84035513 159.11599396 -120.98522605 143.8661985 -121.09423828 131.36230469 C-121.41421221 123.81332738 -122.33781551 116.31694859 -123.1875 108.8125 C-125.00044749 92.56123233 -126.50254148 76.43658169 -126.5625 60.0625 C-126.56642761 59.0218338 -126.56642761 59.0218338 -126.57043457 57.96014404 C-126.57652718 42.79694917 -125.21754257 27.43206639 -118.25 13.6875 C-117.92 13.02621094 -117.59 12.36492188 -117.25 11.68359375 C-115.33277795 8.09629155 -113.18945955 5.45899043 -110.25 2.6875 C-109.18559802 1.39740022 -108.12332963 0.10553888 -107.0625 -1.1875 C-101.12378548 -7.91222085 -94.76320576 -11.41559077 -86.3125 -14.125 C-85.34679077 -14.43570435 -85.34679077 -14.43570435 -84.36157227 -14.75268555 C-56.9708018 -22.88458825 -22.21600913 -18.35625805 0 0 Z M-44.25 59.6875 C-45.3225 60.05875 -46.395 60.43 -47.5 60.8125 C-51.4347396 63.495277 -53.02216715 66.09707946 -54.25 70.6875 C-55.06315319 79.32725267 -55.21162012 89.24506982 -50.25 96.6875 C-49.59 96.6875 -48.93 96.6875 -48.25 96.6875 C-48.21261719 95.75808594 -48.17523438 94.82867187 -48.13671875 93.87109375 C-47.33150955 78.7300031 -47.33150955 78.7300031 -42.70703125 74.1640625 C-39.95329271 71.96350322 -37.77717088 70.79966402 -34.3125 70.0625 C-29.06430649 71.1335599 -24.79438703 73.63189227 -21.5625 77.93359375 C-18.66130884 84.02091448 -18.3527314 92.47302623 -20.0625 99 C-21.25 101.6875 -21.25 101.6875 -23.25 102.6875 C-23.25 103.3475 -23.25 104.0075 -23.25 104.6875 C-24.24 105.1825 -24.24 105.1825 -25.25 105.6875 C-22.94 106.6775 -20.63 107.6675 -18.25 108.6875 C-15.96831518 104.97133823 -15.54539653 101.06142082 -15.0625 96.8125 C-14.97718018 96.06307129 -14.89186035 95.31364258 -14.80395508 94.54150391 C-13.83638121 84.9870911 -13.56553841 75.30690932 -18.25 66.6875 C-18.4975 65.965625 -18.745 65.24375 -19 64.5 C-21.49517591 60.88199494 -25.28206097 59.17772137 -29.4296875 58.14453125 C-34.75886542 57.36082862 -39.18991516 57.91165627 -44.25 59.6875 Z M-107.3125 65.6875 C-113.55312185 75.35039834 -114.35079147 84.44608411 -113.25 95.6875 C-111.7996835 101.10873653 -108.92560279 104.57043147 -104.25 107.6875 C-103.59 106.6975 -102.93 105.7075 -102.25 104.6875 C-102.91 104.6875 -103.57 104.6875 -104.25 104.6875 C-104.25 104.0275 -104.25 103.3675 -104.25 102.6875 C-104.91 102.6875 -105.57 102.6875 -106.25 102.6875 C-108.78460917 94.45002019 -109.17769825 86.12310755 -107.25 77.6875 C-106.59 77.6875 -105.93 77.6875 -105.25 77.6875 C-104.92 76.3675 -104.59 75.0475 -104.25 73.6875 C-102.66773035 73.49122609 -101.08410729 73.30584462 -99.5 73.125 C-98.17742187 72.96837891 -98.17742187 72.96837891 -96.828125 72.80859375 C-94.36567549 72.69293324 -92.58461936 72.95111305 -90.25 73.6875 C-90.25 74.3475 -90.25 75.0075 -90.25 75.6875 C-89.59 75.6875 -88.93 75.6875 -88.25 75.6875 C-86.93 81.6275 -85.61 87.5675 -84.25 93.6875 C-81.11967632 88.99201448 -81.80590699 84.18742116 -82.25 78.6875 C-83.36227403 73.25603048 -85.15468058 68.55530167 -89.25 64.6875 C-95.89634782 61.24564131 -101.61035698 60.1581492 -107.3125 65.6875 Z M-98.25 76.6875 C-98.58 77.6775 -98.91 78.6675 -99.25 79.6875 C-98.31414062 79.80931641 -98.31414062 79.80931641 -97.359375 79.93359375 C-95.25 80.6875 -95.25 80.6875 -94.203125 82.53515625 C-93.97109375 83.26605469 -93.7390625 83.99695313 -93.5 84.75 C-93.25765625 85.48347656 -93.0153125 86.21695313 -92.765625 86.97265625 C-92.59546875 87.53855469 -92.4253125 88.10445312 -92.25 88.6875 C-91.92 88.6875 -91.59 88.6875 -91.25 88.6875 C-91.78049219 82.85332705 -91.78049219 82.85332705 -94.25 77.6875 C-96.30000871 76.88221111 -96.30000871 76.88221111 -98.25 76.6875 Z M-30.25 76.6875 C-30.91 77.3475 -31.57 78.0075 -32.25 78.6875 C-31.63511719 79.39326172 -31.63511719 79.39326172 -31.0078125 80.11328125 C-30.46898437 80.73589844 -29.93015625 81.35851562 -29.375 82 C-28.57449219 82.92232422 -28.57449219 82.92232422 -27.7578125 83.86328125 C-26.25 85.6875 -26.25 85.6875 -24.25 88.6875 C-24.50042764 82.97320908 -24.50042764 82.97320908 -27.25 78.1875 C-28.96666667 76.5875 -28.96666667 76.5875 -30.25 76.6875 Z M-75.25 96.6875 C-75.25 97.6775 -75.25 98.6675 -75.25 99.6875 C-75.88514826 102.02960921 -76.5486716 104.36434969 -77.25 106.6875 C-79.56 107.0175 -81.87 107.3475 -84.25 107.6875 C-84.25 105.7075 -84.25 103.7275 -84.25 101.6875 C-88.82589291 102.24763755 -92.23076192 104.2114749 -96.0625 106.625 C-96.65998047 106.98529297 -97.25746094 107.34558594 -97.87304688 107.71679688 C-99.37129015 108.64656384 -100.81628564 109.66101929 -102.25 110.6875 C-102.25 111.3475 -102.25 112.0075 -102.25 112.6875 C-102.91 112.6875 -103.57 112.6875 -104.25 112.6875 C-108.08966116 116.62315269 -110.85874352 120.01428099 -111.25 125.6875 C-105.92283347 134.67287899 -96.00888552 139.89296007 -86.25 142.6875 C-70.69948389 144.69710516 -57.50460498 139.69975069 -44.25 131.6875 C-43.0614466 130.99046121 -41.87263031 130.29387053 -40.68359375 129.59765625 C-35.88885557 126.76514294 -35.88885557 126.76514294 -31.25 123.6875 C-31.25 123.0275 -31.25 122.3675 -31.25 121.6875 C-29.6 121.3575 -27.95 121.0275 -26.25 120.6875 C-25.921875 123.4375 -25.921875 123.4375 -26.25 126.6875 C-28.453125 128.8125 -28.453125 128.8125 -31.5 130.6875 C-32.59441406 131.36296875 -33.68882812 132.0384375 -34.81640625 132.734375 C-39.86687173 135.60722226 -44.98706893 138.2280496 -50.25 140.6875 C-51.04277344 141.079375 -51.83554688 141.47125 -52.65234375 141.875 C-66.07386175 148.29091019 -81.55473823 148.70106931 -95.51953125 143.84375 C-98.81425061 142.44856126 -101.46127433 140.91848053 -104.25 138.6875 C-105.24 139.1825 -105.24 139.1825 -106.25 139.6875 C-105.14718873 140.95950971 -104.04269231 142.23005853 -102.9375 143.5 C-102.32261719 144.20769531 -101.70773438 144.91539062 -101.07421875 145.64453125 C-98.75811179 148.26227863 -98.75811179 148.26227863 -96.25 150.6875 C-95.59 150.6875 -94.93 150.6875 -94.25 150.6875 C-94.25 151.3475 -94.25 152.0075 -94.25 152.6875 C-93.59 152.6875 -92.93 152.6875 -92.25 152.6875 C-91.92 153.6775 -91.59 154.6675 -91.25 155.6875 C-82.23599979 161.43130478 -73.83074588 163.29394615 -63.4296875 161.08984375 C-54.12137287 158.36329382 -45.68976989 153.3673724 -37.25 148.6875 C-37.25 148.0275 -37.25 147.3675 -37.25 146.6875 C-35.27 146.0275 -33.29 145.3675 -31.25 144.6875 C-31.25 144.0275 -31.25 143.3675 -31.25 142.6875 C-30.55261719 142.44773438 -29.85523438 142.20796875 -29.13671875 141.9609375 C-25.73376144 140.45976824 -23.04002051 138.53916751 -20.0625 136.3125 C-19.01707031 135.54164063 -17.97164063 134.77078125 -16.89453125 133.9765625 C-14.49047498 131.89565117 -13.340099 130.61672307 -12.25 127.6875 C-11.59 127.6875 -10.93 127.6875 -10.25 127.6875 C-9.30469986 124.67972683 -9.06368352 123.1532912 -10.25 120.1875 C-17.50958685 111.11301644 -30.20718655 107.34661898 -41.03515625 104.328125 C-43.09845419 103.73133336 -45.06311841 103.03146308 -47.0625 102.25 C-56.55615914 98.65159694 -64.99739711 95.94783326 -75.25 96.6875 Z M-23.25 145.6875 C-23.91 146.0175 -24.57 146.3475 -25.25 146.6875 C-25.25 147.3475 -25.25 148.0075 -25.25 148.6875 C-25.95125 148.935 -26.6525 149.1825 -27.375 149.4375 C-30.64514548 150.85930238 -33.391122 152.55996288 -36.25 154.6875 C-36.25 155.3475 -36.25 156.0075 -36.25 156.6875 C-37.0234375 156.81125 -37.0234375 156.81125 -37.8125 156.9375 C-40.46148946 157.64898993 -40.46148946 157.64898993 -43.37109375 159.53125 C-55.55030814 166.57762589 -69.38235337 169.83575573 -83.2734375 167.08984375 C-89.90349163 165.09339888 -94.28254983 161.44742217 -99.15625 156.61328125 C-101.18812351 154.48063674 -101.18812351 154.48063674 -104.25 153.6875 C-104.72179687 155.20730469 -104.72179687 155.20730469 -105.203125 156.7578125 C-105.6349244 158.10953235 -106.06724388 159.46108614 -106.5 160.8125 C-106.70496094 161.47765625 -106.90992188 162.1428125 -107.12109375 162.828125 C-108.57367126 167.31791002 -110.50321046 170.80315115 -113.25 174.6875 C-114.92968706 178.29571665 -116.46735279 181.77426397 -117.25 185.6875 C-117.91 185.6875 -118.57 185.6875 -119.25 185.6875 C-124.63021646 199.43041367 -124.63021646 199.43041367 -128.62695312 213.61035156 C-130.03372043 219.65393422 -131.44278528 224.94242235 -135.10546875 230.0546875 C-136.53194009 232.0897217 -137.38691781 234.27842624 -138.3046875 236.578125 C-139.62299564 239.51980431 -141.19525638 242.30174171 -142.75 245.125 C-144.73597687 248.7590039 -146.60783214 252.28498689 -148 256.1875 C-149.25 259.6875 -149.25 259.6875 -150.67578125 261.98828125 C-160.92575661 279.56330103 -163.34500657 303.99443821 -161.25 323.6875 C-166.92653928 319.62143956 -170.66348112 315.60963299 -172.25 308.6875 C-174.79815305 280.28138474 -162.17718044 254.02818214 -147.25 230.6875 C-148.735 229.6975 -148.735 229.6975 -150.25 228.6875 C-165.85440334 250.29359694 -178.44126412 278.86952975 -177.25 305.6875 C-177.22808594 306.59886719 -177.20617187 307.51023437 -177.18359375 308.44921875 C-176.3271217 316.89158608 -170.02468605 322.05010218 -164.25 327.6875 C-163.68152344 328.29722656 -163.11304688 328.90695312 -162.52734375 329.53515625 C-161.28921901 330.91078081 -161.28921901 330.91078081 -159.25 330.6875 C-159.25 331.3475 -159.25 332.0075 -159.25 332.6875 C-157.6 333.3475 -155.95 334.0075 -154.25 334.6875 C-154.25 335.3475 -154.25 336.0075 -154.25 336.6875 C-153.59 336.6875 -152.93 336.6875 -152.25 336.6875 C-152.25 337.3475 -152.25 338.0075 -152.25 338.6875 C-150.61991355 339.74608204 -148.93996219 340.72739294 -147.25 341.6875 C-145.87742934 342.56717746 -144.5107009 343.4560062 -143.1484375 344.3515625 C-142.41109375 344.83367187 -141.67375 345.31578125 -140.9140625 345.8125 C-139.37897259 346.81842922 -137.84513064 347.82626529 -136.3125 348.8359375 C-135.57773438 349.31546875 -134.84296875 349.795 -134.0859375 350.2890625 C-133.42126465 350.72557129 -132.7565918 351.16208008 -132.07177734 351.61181641 C-130.13067568 352.84396779 -130.13067568 352.84396779 -127.25 353.6875 C-127.25 354.3475 -127.25 355.0075 -127.25 355.6875 C-125.63281689 357.1203718 -123.95376628 358.48374749 -122.25 359.8125 C-113.32148478 367.00109943 -103.48091002 375.18621666 -100.4453125 386.75390625 C-100.23613527 389.89574827 -100.5662083 391.27706634 -102.0625 394 C-102.41957031 394.67675781 -102.77664062 395.35351562 -103.14453125 396.05078125 C-104.25 397.6875 -104.25 397.6875 -106.25 398.6875 C-106.25 399.3475 -106.25 400.0075 -106.25 400.6875 C-109.83752742 402.55301426 -113.52812193 404.11285928 -117.25 405.6875 C-116.67984577 411.76914514 -113.22283175 416.76798802 -108.9375 420.9375 C-98.87199172 427.49178446 -89.12451474 429.04180358 -77.25 429.6875 C-76.48429687 429.73003906 -75.71859375 429.77257812 -74.9296875 429.81640625 C-62.88875663 430.13106472 -49.51357825 429.10160499 -38.25 424.6875 C-37.30125 424.3265625 -36.3525 423.965625 -35.375 423.59375 C-23.36026003 418.81237389 -12.28164341 412.80118145 -2.8125 403.9375 C-1.9620813 403.14678101 -1.9620813 403.14678101 -1.09448242 402.34008789 C8.08491154 394.47041379 8.08491154 394.47041379 12.96118164 384.18237305 C12.93592407 382.70571167 12.93592407 382.70571167 12.91015625 381.19921875 C12.89823242 380.10657715 12.88630859 379.01393555 12.87402344 377.88818359 C12.8537207 376.72883301 12.83341797 375.56948242 12.8125 374.375 C12.79499661 372.00653179 12.7806464 369.63803806 12.76953125 367.26953125 C12.76107178 365.56144287 12.76107178 365.56144287 12.75244141 363.81884766 C12.7451778 354.50254999 12.90761575 346.85902343 17.75 338.6875 C17.90597656 337.98238281 18.06195313 337.27726563 18.22265625 336.55078125 C18.39667969 335.93589844 18.57070313 335.32101562 18.75 334.6875 C21.1875 333.5 21.1875 333.5 23.75 332.6875 C24.41 332.3575 25.07 332.0275 25.75 331.6875 C30.22673252 331.51531798 34.35598974 331.83013214 38.75 332.6875 C39.93084581 327.01416257 39.98011501 321.41085523 40.05859375 315.640625 C40.07381073 314.56415207 40.08902771 313.48767914 40.10470581 312.37858582 C40.749602 269.53197726 40.749602 269.53197726 24.3125 230.625 C23.52756736 229.43430401 22.74371774 228.24289337 21.9609375 227.05078125 C21.58420898 226.48053223 21.20748047 225.9102832 20.81933594 225.32275391 C13.78834476 214.57079526 8.13942077 204.8484332 7.5 191.8125 C7.04969576 186.60987783 5.01250245 182.96196067 2.3828125 178.515625 C-0.18349706 174.07062949 -2.19616457 169.38587574 -4.25 164.6875 C-4.91 164.6875 -5.57 164.6875 -6.25 164.6875 C-6.39695312 164.12804687 -6.54390625 163.56859375 -6.6953125 162.9921875 C-8.86337074 155.24200228 -11.98429363 148.02212854 -15.25 140.6875 C-18.69681311 140.6875 -20.72537961 143.53105341 -23.25 145.6875 Z M40.75 218.6875 C40.78955898 220.61059422 40.78955898 220.61059422 41.75 222.6875 C43.73077953 223.72505118 45.73529902 224.71745879 47.75 225.6875 C54.17880524 230.54511047 54.17880524 230.54511047 55.75 233.6875 C56.41 233.6875 57.07 233.6875 57.75 233.6875 C58.018125 234.38875 58.28625 235.09 58.5625 235.8125 C59.70246081 238.70309855 59.70246081 238.70309855 61.19140625 241.40234375 C71.64880705 263.4441334 67.81087357 288.28781908 61.29077148 310.77490234 C60.70862537 312.71655328 60.70862537 312.71655328 60.35571289 314.86572266 C60.15582764 315.46690918 59.95594238 316.0680957 59.75 316.6875 C56.9375 317.75 56.9375 317.75 53.75 318.6875 C51.40738392 320.06676773 51.40738392 320.06676773 49.75 321.6875 C49.75 322.3475 49.75 323.0075 49.75 323.6875 C49.09 323.6875 48.43 323.6875 47.75 323.6875 C46.16030753 325.70541336 46.16030753 325.70541336 44.625 328.1875 C44.08617187 329.0228125 43.54734375 329.858125 42.9921875 330.71875 C42.37730469 331.69328125 42.37730469 331.69328125 41.75 332.6875 C42.08 333.3475 42.41 334.0075 42.75 334.6875 C43.430625 333.82125 44.11125 332.955 44.8125 332.0625 C49.45434992 326.51588272 55.3214988 320.54630198 62.75463867 319.37036133 C65.05414874 319.21007445 67.31996202 319.16970048 69.625 319.1875 C70.45273926 319.19104492 71.28047852 319.19458984 72.13330078 319.19824219 C82.12671293 319.46188028 93.3033766 321.58812847 100.75 328.6875 C102.55078125 331.265625 102.55078125 331.265625 104.0625 333.9375 C104.83013672 335.27554688 104.83013672 335.27554688 105.61328125 336.640625 C105.98839844 337.31609375 106.36351562 337.9915625 106.75 338.6875 C107.86667102 334.92272342 107.52699869 333.24149739 105.75 329.6875 C104.35042803 327.40265694 104.35042803 327.40265694 102.75 325.6875 C102.09 325.6875 101.43 325.6875 100.75 325.6875 C100.75 325.0275 100.75 324.3675 100.75 323.6875 C91.36525354 317.99582506 82.8022137 316.45866142 72.04296875 315.25 C68.75 314.6875 68.75 314.6875 65.75 312.6875 C66.21019531 311.60339844 66.67039062 310.51929688 67.14453125 309.40234375 C69.11571957 304.12614128 69.79033361 298.82193396 70.4375 293.25 C70.5627002 292.19031006 70.68790039 291.13062012 70.81689453 290.03881836 C72.98410279 270.55605837 73.40528903 251.3379129 61.75 234.6875 C61.25628906 233.93210938 60.76257813 233.17671875 60.25390625 232.3984375 C58.85612293 230.25931285 58.85612293 230.25931285 56.75 227.6875 C56.09 227.6875 55.43 227.6875 54.75 227.6875 C54.75 227.0275 54.75 226.3675 54.75 225.6875 C52.64110992 224.12265649 52.64110992 224.12265649 50 222.625 C48.67742187 221.83416016 48.67742187 221.83416016 47.328125 221.02734375 C45.0802023 219.85910513 43.22179076 219.15529218 40.75 218.6875 Z M-204.5625 336.8125 C-206.10133525 339.79965077 -206.65741764 342.63171365 -207.1875 345.9375 C-207.98539795 350.43846277 -207.98539795 350.43846277 -210.375 352.6875 C-216.71882705 354.89404854 -221.85553061 355.81405671 -228.52734375 355.7109375 C-237.93824986 355.37313542 -237.93824986 355.37313542 -246.3125 358.875 C-246.951875 359.803125 -247.59125 360.73125 -248.25 361.6875 C-248.848125 362.5125 -249.44625 363.3375 -250.0625 364.1875 C-253.19673601 373.42524823 -250.94022995 382.84082678 -248.92578125 392.1015625 C-246.38478442 405.5850023 -250.67350075 417.08226202 -257 428.875 C-259.0809737 432.99170884 -260.18475966 436.01370169 -259.25 440.6875 C-250.81393599 448.4119101 -240.48432241 450.20987885 -229.5402832 451.66430664 C-224.16854331 452.37860945 -219.09412559 453.36404241 -213.8984375 454.9375 C-210.62830517 455.86355517 -207.3315394 456.5170015 -204 457.1875 C-199.063127 458.21868668 -194.86131237 459.62887841 -190.25 461.6875 C-186.79628855 462.72236661 -183.32786432 463.6833428 -179.84765625 464.625 C-176.67623584 465.56161928 -173.6149449 466.64841945 -170.52856445 467.83105469 C-165.82722659 469.59814921 -161.06813102 471.19871844 -156.3125 472.8125 C-154.76272461 473.35197266 -154.76272461 473.35197266 -153.18164062 473.90234375 C-141.77225735 477.76086856 -133.10923735 478.60709009 -122.0625 473.3125 C-118.46390055 471.43280014 -115.19060053 469.53008051 -112.25 466.6875 C-112.25 466.0275 -112.25 465.3675 -112.25 464.6875 C-111.59 464.6875 -110.93 464.6875 -110.25 464.6875 C-105.73654549 457.91731824 -107.44453281 445.86586105 -108.9375 438.12109375 C-109.87188059 435.19726115 -110.96200045 432.47279903 -112.25 429.6875 C-112.86875 428.28757812 -112.86875 428.28757812 -113.5 426.859375 C-117.37129744 418.63286793 -122.27119829 411.02069802 -127.18115234 403.38720703 C-128.07803811 401.9609579 -128.91566832 400.49768339 -129.73828125 399.02734375 C-131.58005025 396.17664703 -133.83271942 394.06467487 -136.25 391.6875 C-149.92690783 374.65677651 -149.92690783 374.65677651 -152.25 367.6875 C-152.91 367.6875 -153.57 367.6875 -154.25 367.6875 C-154.311875 367.0275 -154.37375 366.3675 -154.4375 365.6875 C-155.58729148 361.44211608 -157.80236079 358.31255807 -160.25 354.6875 C-160.93835938 353.64464844 -161.62671875 352.60179687 -162.3359375 351.52734375 C-168.41179128 342.4293582 -174.58584478 333.61914613 -185.25 329.6875 C-193.43956218 328.25777552 -199.51100953 329.98616152 -204.5625 336.8125 Z M24.75 339.6875 C16.00483836 352.93017334 19.71178642 373.95137648 19.92138672 389.10327148 C20.10166353 402.92685677 19.51190959 416.04089545 17.09185791 429.65786743 C16.36141474 433.99455587 15.99753614 438.37087419 15.625 442.75 C14.87460897 451.3136731 14.87460897 451.3136731 13.75 454.6875 C13.15418585 459.70936211 13.26915161 462.61233561 16.1875 466.8125 C21.47935947 473.15274673 27.73525321 476.83794305 35.75 478.6875 C38.42518736 478.89557013 40.95621452 479.02090516 43.625 479 C44.32318848 478.99798584 45.02137695 478.99597168 45.74072266 478.99389648 C52.11656367 478.87028777 57.05689636 477.53405182 62.75 474.6875 C62.75 474.0275 62.75 473.3675 62.75 472.6875 C63.55953125 472.50316406 64.3690625 472.31882812 65.203125 472.12890625 C70.07669376 470.14834802 73.53907645 467.03220954 77.5 463.625 C79.01437031 462.34096669 80.52993731 461.05834298 82.046875 459.77734375 C83.04219238 458.92450806 83.04219238 458.92450806 84.05761719 458.05444336 C85.75 456.6875 85.75 456.6875 87.75 455.6875 C87.75 455.0275 87.75 454.3675 87.75 453.6875 C88.41 453.6875 89.07 453.6875 89.75 453.6875 C89.75 453.0275 89.75 452.3675 89.75 451.6875 C90.41 451.6875 91.07 451.6875 91.75 451.6875 C91.75 451.0275 91.75 450.3675 91.75 449.6875 C92.31332031 449.43484375 92.87664062 449.1821875 93.45703125 448.921875 C96.06992076 447.5152769 98.15547587 445.83367464 100.4375 443.9375 C109.28535635 436.78966845 118.55569034 431.62763347 128.75 426.6875 C130.18882083 425.96094312 131.62659862 425.2323097 133.0625 424.5 C135.81780347 423.1164356 138.61140422 421.85736308 141.4375 420.625 C147.90880637 418.09012542 147.90880637 418.09012542 152.0625 412.875 C153.12288512 407.95866897 153.50588988 405.08729608 151.0625 400.5625 C147.88490372 396.61197489 144.92646288 393.45438339 139.75 392.6875 C139.75 392.0275 139.75 391.3675 139.75 390.6875 C138.945625 390.501875 138.14125 390.31625 137.3125 390.125 C130.06618608 387.20104877 124.30135277 382.51019837 120.80078125 375.4609375 C118.73643279 370.01228544 117.47758956 364.35506863 116.20410156 358.68115234 C115.51844051 355.67087913 114.75793012 352.68026147 114 349.6875 C113.58333333 348.02083333 113.16666667 346.35416667 112.75 344.6875 C107.68598869 344.88172341 107.68598869 344.88172341 103.8125 347.8125 C103.131875 348.76125 102.45125 349.71 101.75 350.6875 C100.4627779 351.88199848 99.14756123 353.04672006 97.8125 354.1875 C93.95634822 357.48561868 90.34402083 360.93270883 86.9296875 364.69140625 C82.1323581 369.08465951 75.22904081 370.8972526 68.8125 371.1875 C60.99334069 370.7890715 53.21309704 368.86083858 47.75 363 C43.52042934 357.45638798 41.25783933 351.4438501 39.3125 344.8125 C38.3077901 341.68370233 37.91260747 340.82509093 35.3125 338.625 C31.22861763 337.1308967 28.34401678 337.38822218 24.75 339.6875 Z " fill="#ECECEC" transform="translate(300.25,18.3125)"/>
<path d="M0 0 C5.40049709 2.42450062 9.58767453 5.49989792 12 11 C13.14585682 18.06187312 14.08744415 25.36199508 11 32 C9.515 32.495 9.515 32.495 8 33 C7.67 33.99 7.34 34.98 7 36 C8.65 36.66 10.3 37.32 12 38 C12.99 37.01 13.98 36.02 15 35 C14.70703125 37.01822917 14.4140625 39.03645833 14.12109375 41.0546875 C13.8315703 43.08140667 13.8315703 43.08140667 15 45 C11.07274309 43.83243713 7.44743867 42.30370516 3.75 40.5625 C-0.64363347 38.52962481 -4.97309484 36.99503344 -9.62890625 35.69140625 C-13.16777907 34.65947793 -16.56558706 33.33560503 -20 32 C-18.68 31.34 -17.36 30.68 -16 30 C-16.99 29.01 -17.98 28.02 -19 27 C-18.34 27 -17.68 27 -17 27 C-17.05220703 25.60587891 -17.05220703 25.60587891 -17.10546875 24.18359375 C-17.38603746 11.37095597 -17.38603746 11.37095597 -14 6 C-9.5876093 1.91853861 -6.15449965 -0.81285844 0 0 Z M1 7 C0.34 7.66 -0.32 8.32 -1 9 C-0.38511719 9.70576172 -0.38511719 9.70576172 0.2421875 10.42578125 C0.78101563 11.04839844 1.31984375 11.67101562 1.875 12.3125 C2.67550781 13.23482422 2.67550781 13.23482422 3.4921875 14.17578125 C5 16 5 16 7 19 C6.74957236 13.28570908 6.74957236 13.28570908 4 8.5 C2.28333333 6.9 2.28333333 6.9 1 7 Z " fill="#E7E7E7" transform="translate(269,88)"/>
<path d="M0 0 C0.495 2.97 0.495 2.97 1 6 C-7.02138021 11.8219695 -14.9639426 16.83832286 -24 21 C-24.79148438 21.39058594 -25.58296875 21.78117187 -26.3984375 22.18359375 C-40.10298822 28.74735225 -55.37185439 28.79091941 -69.62109375 24.0703125 C-72 23 -72 23 -73 21 C-68.545 21.99 -68.545 21.99 -64 23 C-64 22.34 -64 21.68 -64 21 C-64.66 20.67 -65.32 20.34 -66 20 C-64.74509766 20.23589844 -64.74509766 20.23589844 -63.46484375 20.4765625 C-42.35019029 23.66637486 -26.54653163 15.80846142 -9.21484375 4.3203125 C-7 3 -7 3 -5 3 C-5 2.34 -5 1.68 -5 1 C-3 0 -3 0 0 0 Z " fill="#BABABA" transform="translate(274,139)"/>
<path d="M0 0 C3 1 3 1 3.875 2.75 C4.06103005 6.09854094 3.17857423 7.48102355 1 10 C-2.6875 10.8125 -2.6875 10.8125 -6 11 C-6 9.02 -6 7.04 -6 5 C-6.99 4.67 -7.98 4.34 -9 4 C-7.88625 3.690625 -6.7725 3.38125 -5.625 3.0625 C-2.2054845 2.17673517 -2.2054845 2.17673517 0 1 C0 0.67 0 0.34 0 0 Z " fill="#9B9B9B" transform="translate(222,115)"/>
<path d="M0 0 C3.14737182 0.69941596 6.02588876 1.76078698 9 3 C9.99 2.01 10.98 1.02 12 0 C11.70703125 2.01822917 11.4140625 4.03645833 11.12109375 6.0546875 C10.8315703 8.08140667 10.8315703 8.08140667 12 10 C6.80355921 8.40109514 1.93387858 6.25861997 -3 4 C-2.01 3.67 -1.02 3.34 0 3 C0 2.01 0 1.02 0 0 Z " fill="#929292" transform="translate(272,123)"/>
<path d="M0 0 C10.395 0.99 10.395 0.99 21 2 C21 2.33 21 2.66 21 3 C15.72 3 10.44 3 5 3 C5 3.66 5 4.32 5 5 C10.94 5.33 16.88 5.66 23 6 C23 6.33 23 6.66 23 7 C12.71094784 7.47548893 3.59563059 7.31724595 -6 3 C-6.33 2.34 -6.66 1.68 -7 1 C-2.545 1.99 -2.545 1.99 2 3 C2 2.34 2 1.68 2 1 C1.34 0.67 0.68 0.34 0 0 Z " fill="#656565" transform="translate(208,159)"/>
<path d="M0 0 C3.50411265 0.3185557 5.5840105 0.69067447 8.4375 2.8125 C10 5 10 5 9.75 7.25 C9.5025 7.8275 9.255 8.405 9 9 C6.75 9.3125 6.75 9.3125 4 9 C1.6875 6.75 1.6875 6.75 0 4 C0 2.68 0 1.36 0 0 Z " fill="#C2C2C2" transform="translate(231,117)"/>
<path d="M0 0 C4.20390632 1.50139512 5.89110738 4.17275043 8 8 C7.67 8.99 7.34 9.98 7 11 C6.34 9.35 5.68 7.7 5 6 C4.01 6.495 4.01 6.495 3 7 C3.66 10.3 4.32 13.6 5 17 C4.01 16.67 3.02 16.34 2 16 C1.896875 14.7625 1.79375 13.525 1.6875 12.25 C1.26198318 8.7207134 0.51887408 6.62839034 -2 4 C-1.34 3.67 -0.68 3.34 0 3 C0 2.01 0 1.02 0 0 Z " fill="#7E7E7E" transform="translate(273,91)"/>
<path d="M0 0 C0.66 0.66 1.32 1.32 2 2 C0.1746875 2.0928125 0.1746875 2.0928125 -1.6875 2.1875 C-6.18745495 2.71315845 -8.02623841 4.58892052 -11 8 C-11.66 8 -12.32 8 -13 8 C-13 7.34 -13 6.68 -13 6 C-12.34 6 -11.68 6 -11 6 C-10.9175 5.38125 -10.835 4.7625 -10.75 4.125 C-10 2 -10 2 -8.3125 0.75 C-5.39972774 -0.19468289 -3.04374056 -0.26467309 0 0 Z " fill="#8F8F8F" transform="translate(206,90)"/>
<path d="M0 0 C0.639375 0.804375 1.27875 1.60875 1.9375 2.4375 C3.40603502 4.2750504 3.40603502 4.2750504 5 6 C5.66 5.67 6.32 5.34 7 5 C6.34 6.32 5.68 7.64 5 9 C-0.75 8.25 -0.75 8.25 -3 6 C-2.01 6 -1.02 6 0 6 C0 4.02 0 2.04 0 0 Z " fill="#606060" transform="translate(339,345)"/>
<path d="M0 0 C0.9991932 3.10860106 0.83036989 4.88611292 0 8 C0.33 8.66 0.66 9.32 1 10 C-4.75 8.25 -4.75 8.25 -7 6 C-5.68 6 -4.36 6 -3 6 C-3.33 5.01 -3.66 4.02 -4 3 C-3.01 2.67 -2.02 2.34 -1 2 C-0.67 1.34 -0.34 0.68 0 0 Z " fill="#5E5E5E" transform="translate(283,123)"/>
<path d="M0 0 C0 4.22023957 -1.85196466 6.668279 -4.5625 9.8125 C-6 11 -6 11 -8 11 C-6.63629701 8.00779732 -5.05091917 5.70973471 -2.875 3.25 C-2.33617187 2.63640625 -1.79734375 2.0228125 -1.2421875 1.390625 C-0.62730469 0.70226562 -0.62730469 0.70226562 0 0 Z " fill="#858585" transform="translate(160,195)"/>
<path d="M0 0 C2.9375 0.375 2.9375 0.375 6 1 C6.33 1.66 6.66 2.32 7 3 C5.35 2.67 3.7 2.34 2 2 C2.33 3.65 2.66 5.3 3 7 C1.5 5.75 1.5 5.75 0 4 C0 2.68 0 1.36 0 0 Z " fill="#808080" transform="translate(231,117)"/>
<path d="M0 0 C1.95216435 3.90432869 2.50639991 6.72213252 3 11 C2.01 11 1.02 11 0 11 C0 7.37 0 3.74 0 0 Z " fill="#727272" transform="translate(214,103)"/>
<path d="M0 0 C0.33 0 0.66 0 1 0 C1.33 5.28 1.66 10.56 2 16 C0.68 15.34 -0.64 14.68 -2 14 C-1.34 14 -0.68 14 0 14 C0 9.38 0 4.76 0 0 Z " fill="#151515" transform="translate(252,101)"/>
<path d="M0 0 C0.66 0 1.32 0 2 0 C2 0.66 2 1.32 2 2 C2.99 2.33 3.98 2.66 5 3 C4.01 3.66 3.02 4.32 2 5 C1.34 6.32 0.68 7.64 0 9 C0 6.03 0 3.06 0 0 Z " fill="#555555" transform="translate(194,169)"/>
</svg>
